<mxfile host="app.diagrams.net" modified="2020-12-23T08:03:54.981Z" agent="5.0 (Windows NT 10.0; Win64; x64) AppleWebKit/537.36 (KHTML, like Gecko) Chrome/87.0.4280.88 Safari/537.36" etag="CsdgHlsuHtif_AWYlHJZ" version="14.0.3" type="github">
  <diagram id="DliKpah0FPMZE598M5Jr" name="Page-1">
    <mxGraphModel dx="1185" dy="643" grid="1" gridSize="10" guides="1" tooltips="1" connect="1" arrows="1" fold="1" page="1" pageScale="1" pageWidth="827" pageHeight="1169" math="0" shadow="0">
      <root>
        <mxCell id="0" />
        <mxCell id="1" parent="0" />
        <mxCell id="cQukx_EML89aMhaUdl0D-6" value="" style="edgeStyle=orthogonalEdgeStyle;rounded=0;orthogonalLoop=1;jettySize=auto;html=1;fontSize=15;" edge="1" parent="1" source="cQukx_EML89aMhaUdl0D-2" target="cQukx_EML89aMhaUdl0D-3">
          <mxGeometry relative="1" as="geometry" />
        </mxCell>
        <mxCell id="cQukx_EML89aMhaUdl0D-2" value=".java源代码" style="rounded=1;whiteSpace=wrap;html=1;fontSize=15;" vertex="1" parent="1">
          <mxGeometry x="110" y="300" width="80" height="40" as="geometry" />
        </mxCell>
        <mxCell id="cQukx_EML89aMhaUdl0D-7" style="edgeStyle=orthogonalEdgeStyle;rounded=0;orthogonalLoop=1;jettySize=auto;html=1;fontSize=15;" edge="1" parent="1" source="cQukx_EML89aMhaUdl0D-3" target="cQukx_EML89aMhaUdl0D-5">
          <mxGeometry relative="1" as="geometry">
            <Array as="points">
              <mxPoint x="230" y="430" />
              <mxPoint x="230" y="320" />
            </Array>
          </mxGeometry>
        </mxCell>
        <mxCell id="cQukx_EML89aMhaUdl0D-3" value=".class 字节" style="rounded=1;whiteSpace=wrap;html=1;fontSize=15;" vertex="1" parent="1">
          <mxGeometry x="110" y="410" width="80" height="40" as="geometry" />
        </mxCell>
        <mxCell id="cQukx_EML89aMhaUdl0D-4" value="字节码校验器" style="rounded=1;whiteSpace=wrap;html=1;fontSize=15;" vertex="1" parent="1">
          <mxGeometry x="270" y="400" width="100" height="40" as="geometry" />
        </mxCell>
        <mxCell id="cQukx_EML89aMhaUdl0D-15" value="" style="edgeStyle=orthogonalEdgeStyle;rounded=0;orthogonalLoop=1;jettySize=auto;html=1;fontSize=15;" edge="1" parent="1" source="cQukx_EML89aMhaUdl0D-5" target="cQukx_EML89aMhaUdl0D-4">
          <mxGeometry relative="1" as="geometry" />
        </mxCell>
        <mxCell id="cQukx_EML89aMhaUdl0D-5" value="类加载器" style="rounded=1;whiteSpace=wrap;html=1;fontSize=15;" vertex="1" parent="1">
          <mxGeometry x="280" y="300" width="80" height="40" as="geometry" />
        </mxCell>
        <mxCell id="cQukx_EML89aMhaUdl0D-8" value="" style="endArrow=classic;html=1;fontSize=15;exitX=0.5;exitY=1;exitDx=0;exitDy=0;entryX=0.5;entryY=0;entryDx=0;entryDy=0;" edge="1" parent="1" source="cQukx_EML89aMhaUdl0D-4" target="cQukx_EML89aMhaUdl0D-10">
          <mxGeometry width="50" height="50" relative="1" as="geometry">
            <mxPoint x="70" y="540" as="sourcePoint" />
            <mxPoint x="120" y="490" as="targetPoint" />
          </mxGeometry>
        </mxCell>
        <mxCell id="cQukx_EML89aMhaUdl0D-9" value="JIT代码生成器" style="rounded=1;whiteSpace=wrap;html=1;fontSize=15;" vertex="1" parent="1">
          <mxGeometry x="390" y="480" width="100" height="40" as="geometry" />
        </mxCell>
        <mxCell id="cQukx_EML89aMhaUdl0D-10" value="解释器" style="rounded=1;whiteSpace=wrap;html=1;fontSize=15;" vertex="1" parent="1">
          <mxGeometry x="170" y="480" width="100" height="40" as="geometry" />
        </mxCell>
        <mxCell id="cQukx_EML89aMhaUdl0D-11" value="字节码校验器" style="rounded=1;whiteSpace=wrap;html=1;fontSize=15;" vertex="1" parent="1">
          <mxGeometry x="270" y="545" width="100" height="40" as="geometry" />
        </mxCell>
        <mxCell id="cQukx_EML89aMhaUdl0D-12" value="" style="endArrow=classic;html=1;fontSize=15;entryX=0.5;entryY=0;entryDx=0;entryDy=0;" edge="1" parent="1" target="cQukx_EML89aMhaUdl0D-9">
          <mxGeometry width="50" height="50" relative="1" as="geometry">
            <mxPoint x="320" y="440" as="sourcePoint" />
            <mxPoint x="530" y="400" as="targetPoint" />
          </mxGeometry>
        </mxCell>
        <mxCell id="cQukx_EML89aMhaUdl0D-13" value="" style="endArrow=classic;html=1;fontSize=15;exitX=0.5;exitY=1;exitDx=0;exitDy=0;entryX=0.5;entryY=0;entryDx=0;entryDy=0;" edge="1" parent="1" target="cQukx_EML89aMhaUdl0D-11">
          <mxGeometry width="50" height="50" relative="1" as="geometry">
            <mxPoint x="220" y="520" as="sourcePoint" />
            <mxPoint x="120" y="560" as="targetPoint" />
          </mxGeometry>
        </mxCell>
        <mxCell id="cQukx_EML89aMhaUdl0D-14" value="" style="endArrow=classic;html=1;fontSize=15;exitX=0.5;exitY=1;exitDx=0;exitDy=0;entryX=0.5;entryY=0;entryDx=0;entryDy=0;" edge="1" parent="1" source="cQukx_EML89aMhaUdl0D-9" target="cQukx_EML89aMhaUdl0D-11">
          <mxGeometry width="50" height="50" relative="1" as="geometry">
            <mxPoint x="340" y="460" as="sourcePoint" />
            <mxPoint x="240" y="500" as="targetPoint" />
          </mxGeometry>
        </mxCell>
      </root>
    </mxGraphModel>
  </diagram>
</mxfile>
